HIERARCHY
ROOT pelvis
{
  OFFSET 0 100 0
  CHANNELS 6 Xposition Yposition Zposition Zrotation Xrotation Yrotation
  JOINT pelvis_right_femur
  {
    OFFSET -10.78128 -3.44521 -0.5502486
    CHANNELS 3 Zrotation Xrotation Yrotation
    JOINT right_femur_tibia
    {
      OFFSET -0.8047443 -44.0398 -0.1307829
      CHANNELS 3 Zrotation Xrotation Yrotation
      JOINT right_tibia_foot
      {
        OFFSET 3.006224 -47.83518 -5
        CHANNELS 3 Zrotation Xrotation Yrotation
        End Site
        {
          OFFSET 0 -5 15
        }
      }
    }
  }
  JOINT pelvis_left_femur
  {
    OFFSET 10.78128 -3.44521 -0.5502486
    CHANNELS 3 Zrotation Xrotation Yrotation
    JOINT left_femur_tibia
    {
      OFFSET 0.8047443 -44.0398 -0.1307829
      CHANNELS 3 Zrotation Xrotation Yrotation
      JOINT left_tibia_foot
      {
        OFFSET -4.370144 -48.10324 -4.275266
        CHANNELS 3 Zrotation Xrotation Yrotation
        End Site
        {
          OFFSET 0 -5 15
        }
      }
    }
  }
  JOINT pelvis_spine1
  {
    OFFSET 0 6.468898 -3.129235
    CHANNELS 3 Zrotation Xrotation Yrotation
    JOINT spine1
    {
      OFFSET 0 23.15396 4.99043
      CHANNELS 3 Zrotation Xrotation Yrotation
      JOINT spine2
      {
        OFFSET 0 20.79997 -5.064912
        CHANNELS 3 Zrotation Xrotation Yrotation
        JOINT neck
        {
          OFFSET 0 14.38658 9.616178
          CHANNELS 3 Zrotation Xrotation Yrotation
          End Site
          {
            OFFSET 0 20 0
          }
        }
      }
      JOINT right_manubrium
      {
        OFFSET -5.722621 16.35077 3.967754
        CHANNELS 3 Zrotation Xrotation Yrotation
        JOINT right_clavicle
        {
          OFFSET -13.16364 1.694482 -4.693211
          CHANNELS 3 Zrotation Xrotation Yrotation
          JOINT right_humerus
          {
            OFFSET -28.5034 -0.3100689 -2.792744
            CHANNELS 3 Zrotation Xrotation Yrotation
            JOINT right_radius
            {
              OFFSET -25.15693 0.02248979 -1.271978
              CHANNELS 3 Zrotation Xrotation Yrotation
              End Site
              {
                OFFSET -15 0 0
              }
            }
          }
        }
      }
      JOINT left_manubrium
      {
        OFFSET 5.722621 16.35077 3.967754
        CHANNELS 3 Zrotation Xrotation Yrotation
        JOINT left_clavicle
        {
          OFFSET 13.16364 1.694482 -4.693211
          CHANNELS 3 Zrotation Xrotation Yrotation
          JOINT left_humerus
          {
            OFFSET 29.39168 -1.063119 -2.237045
            CHANNELS 3 Zrotation Xrotation Yrotation
            JOINT left_radius
            {
              OFFSET 24.59957 -0.9528479 0.9047498
              CHANNELS 3 Zrotation Xrotation Yrotation
              End Site
              {
                OFFSET 15 -0 -0
              }
            }
          }
        }
      }
    }
  }
}
MOTION
Frames: 13
Frame Time: 0.0416666666667
0 103.5113 0 0.4635244 -0.2521703 0.750082 2.13504 -23.40814 4.830638 -0 31.65388 -0 -3.015918 -8.803059 -3.643375 -6.137999 12.02853 -18.23449 0 -5.131974 0 2.233555 -22.36309 20.95168 -3.346181 -1.4826 3.466162 1.694147 8.195537 -7.50388 1.347011 21.52306 7.801366 3.367 -22.57892 9.642604 4.830582 -17.99862 10.44849 86.00829 33.95971 -18.49822 -0 0 15.43186 -13.15935 10.79306 7.616965 6.99565 -20.00126 -2.175275 -89.9878 28.84916 16.90858 0 0 -20.41092 3.230355 13.54663 10.73979
0.5524275 102.1879 3.430523 0.5892446 -0.4696331 1.555406 1.805217 -22.35074 4.948896 -0 33.74725 -0 -2.520434 -8.592416 -3.728766 -6.289043 11.49156 -18.26565 0 -5.517425 0 1.943519 -22.32476 21.05266 -3.467957 -1.415075 3.51806 1.546804 8.095643 -7.316615 1.390442 21.59815 7.85039 3.353201 -22.35878 9.722351 4.930808 -17.91598 10.37704 85.62908 33.94878 -17.95017 -0 0 15.75044 -13.55072 10.91862 7.874827 6.895129 -19.5624 -2.097766 -90.18299 29.18794 17.14353 0 0 -19.71764 2.656059 13.25145 11.47294
0.9892006 100.7745 6.786502 0.2363402 0.1325726 2.183986 2.833155 -25.38461 4.76916 -0 27.62385 -0 -3.715374 -9.287326 -3.634166 -5.844206 13.05113 -18.0353 0 -3.233044 0 2.403868 -22.31006 20.55376 -3.083833 -1.550995 3.381343 1.964869 8.339317 -7.852482 1.28712 21.38831 7.713127 3.377666 -22.89551 9.507817 4.707551 -17.96499 10.5661 86.74169 34.02944 -19.65271 -0 0 14.68412 -12.48047 10.71765 7.097084 7.16156 -20.76357 -2.277469 -89.51796 28.38681 16.23293 0 0 -21.87889 4.073709 13.90584 9.674107
1.343957 99.20488 9.986782 -0.04814186 0.7509552 2.702276 3.599181 -27.75613 4.745536 -0 23.06779 -0 -4.621423 -10.13339 -3.49671 -5.526064 14.13396 -18.10921 0 -2.719287 0 2.997712 -22.50138 20.40733 -2.84874 -1.690068 3.298826 2.305782 8.464364 -8.263509 1.193199 21.19863 7.638499 3.409065 -23.3982 9.380848 4.620913 -18.11637 10.71296 87.3945 34.29403 -20.79814 -0 0 14.12602 -11.49235 10.49681 6.503732 7.393373 -21.61817 -2.335118 -89.2266 27.92344 15.84532 0 0 -23.40741 5.13308 14.48039 8.370834
1.627446 97.57434 13.18864 -0.2302929 0.9362805 3.13081 4.140294 -29.18951 4.665295 -0 19.96518 -0 -5.204464 -10.29842 -3.511998 -5.295737 14.94137 -17.84594 0 -0.7808276 0 3.057364 -22.35954 20.0101 -2.62165 -1.733119 3.223764 2.499413 8.616173 -8.525363 1.152069 21.11389 7.550663 3.409556 -23.59974 9.251154 4.461029 -18.06835 10.80433 88.06949 34.18024 -21.7282 -0 0 13.44691 -11.08145 10.43174 6.128066 7.502703 -22.24251 -2.464187 -88.79613 27.43221 15.23074 0 0 -24.54321 5.85997 14.70085 7.437947
1.860186 95.97119 16.51182 -0.3204526 0.801109 3.490506 4.466681 -29.86118 4.511139 -0 18.11903 -0 -5.547376 -9.938825 -3.610934 -5.149268 15.50659 -17.36656 -0 1.938959 -0 2.774569 -21.9966 19.47985 -2.417711 -1.71115 3.155622 2.575044 8.785819 -8.663857 1.149209 21.11016 7.457922 3.389935 -23.58182 9.125031 4.247751 -17.90071 10.85242 88.70965 33.78895 -22.42287 -0 0 12.73479 -11.10824 10.46779 5.93572 7.517779 -22.67168 -2.646314 -88.30721 26.92119 14.51711 0 0 -25.30683 6.327625 14.67945 6.792357
2.053663 94.46548 20.05134 -0.3461789 0.441244 3.793558 4.672518 -30.01953 4.330253 -0 17.04556 -0 -5.686501 -9.24801 -3.794009 -5.055303 15.90777 -16.69913 -0 5.479362 -0 2.185666 -21.44219 18.81492 -2.217478 -1.632861 3.095451 2.571249 8.962217 -8.720109 1.176453 21.16128 7.360065 3.353769 -23.39647 9.001389 4.0081 -17.61366 10.87071 89.33237 33.21825 -22.98719 -0 0 11.96179 -11.43928 10.60876 5.855652 7.464508 -22.9638 -2.858633 -87.75764 26.4191 13.68566 0 0 -25.86666 6.572419 14.46464 6.399478
2.214546 93.11112 23.87805 -0.3266965 -0.0797651 4.04586 4.810773 -29.80411 4.13558 -0 16.43327 -0 -5.677672 -8.341698 -4.043627 -4.991388 16.17307 -15.87417 -0 9.728607 -0 1.364137 -20.72024 18.04446 -2.011093 -1.511088 3.044843 2.512743 9.145639 -8.719162 1.225722 21.24989 7.254417 3.304578 -23.08825 8.875418 3.747652 -17.23606 10.87105 89.94636 32.51794 -23.4668 -0 0 11.13314 -11.98781 10.83424 5.852037 7.361219 -23.16421 -3.092597 -87.16395 25.91439 12.76328 0 0 -26.30336 6.655018 14.10704 6.189351
2.345829 91.95679 28.05262 -0.2721847 -0.7325094 4.248119 4.916129 -29.25833 3.94784 -0 16.10878 -0 -5.530162 -7.299769 -4.361125 -4.942092 16.28929 -14.89476 -0 14.70804 -0 0.3248461 -19.82375 17.17811 -1.790837 -1.347685 3.009389 2.410508 9.33252 -8.670577 1.294466 21.36711 7.13883 3.242799 -22.67225 8.745046 3.474254 -16.77436 10.85926 90.54864 31.72008 -23.88209 -0 0 10.2526 -12.7158 11.14613 5.908837 7.214739 -23.28685 -3.338473 -86.5359 25.41451 11.76195 0 0 -26.65966 6.58438 13.61921 6.154993
2.449223 91.05132 32.63257 -0.1863191 -1.512013 4.397483 5.003794 -28.34282 3.777221 -0 15.99293 -0 -5.241368 -6.168532 -4.748282 -4.893927 16.19961 -13.74896 -0 20.46121 -0 -0.930556 -18.72485 16.22754 -1.55141 -1.140841 2.998084 2.265465 9.522187 -8.571911 1.382425 21.50995 7.009483 3.167334 -22.14862 8.606958 3.18872 -16.23647 10.83879 91.12711 30.83437 -24.22233 -0 0 9.33516 -13.62097 11.54919 6.029902 7.024219 -23.3292 -3.5907 -85.88729 24.92039 10.70508 0 0 -26.93498 6.35563 12.99898 6.303968
2.526697 90.44569 37.67306 -0.07070605 -2.418788 4.487928 5.081929 -26.95347 3.63791 -0 16.0413 -0 -4.796149 -5.009637 -5.205571 -4.827709 15.79233 -12.42181 -0 27.01774 -0 -2.405308 -17.38315 15.21601 -1.289695 -0.8863734 3.026985 2.073483 9.711347 -8.412162 1.490286 21.67653 6.86188 3.07607 -21.51129 8.458103 2.893594 -15.63659 10.81222 91.65015 29.87386 -24.44927 -0 0 8.419812 -14.71423 12.05186 6.231672 6.784925 -23.27256 -3.83898 -85.24556 24.44391 9.642231 0 0 -27.09777 5.945984 12.23566 6.667317
2.582211 90.18776 43.21851 0.07054087 -3.440623 4.509566 5.156124 -24.93017 3.549011 -0 16.19418 -0 -4.185484 -3.93674 -5.717743 -4.7088 14.88294 -10.91346 -0 34.28393 -0 -4.076956 -15.76134 14.19828 -1.006368 -0.5828484 3.122531 1.829946 9.893142 -8.174451 1.61691 21.8616 6.690724 2.966971 -20.76194 8.294931 2.594548 -15.01455 10.78359 92.05688 28.8711 -24.49058 -0 0 7.592641 -15.99846 12.6548 6.54026 6.492467 -23.08699 -4.063905 -84.6671 24.0099 8.680971 0 0 -27.08207 5.330507 11.32634 7.282516
2.624008 90.30628 49.28312 0.2252117 -4.527305 4.446965 5.232178 -22.07477 3.537207 -0 16.32743 -0 -3.428774 -3.161633 -6.23329 -4.47671 13.19821 -9.26599 -0 41.88454 -0 -5.861745 -13.85466 13.28194 -0.7097095 -0.2383622 3.325078 1.535791 10.05427 -7.839787 1.755741 22.05069 6.491132 2.839627 -19.92849 8.113792 2.304537 -14.45941 10.76024 92.24266 27.90163 -24.23178 -0 0 7.017608 -17.43826 13.33669 6.985386 6.148466 -22.73588 -4.230171 -84.25676 23.66463 8.026866 0 0 -26.78258 4.497746 10.29738 8.177585
